# xmcd
#
# Track frame offsets: 
#        183
#        20223
#        34423
#        51645
#        64383
#        77860
#        97148
#        114958
#        127870
#        138943
#        151900
#        167358
#        186000
#        199918
#        215263
#        233435
#        250020
#        261933
#        283480
#
# Disc length: 4069 seconds
#
# Revision: 5
# Processed by: cddbd v1.5.2PL0 Copyright (c) Steve Scherf et al.
# Submitted via: ExactAudioCopy v1.0b2
#
DISCID=160fe313
DTITLE=Victor Jara - Canciones Póstumas - Canto Libre
DYEAR=1988
DGENRE=Folklore
TTITLE0=Manifiesto
TTITLE1=Caicaivilu
TTITLE2=Cuando voy al trabajo
TTITLE3=Homenaje a Victor Jara
TTITLE4=Aqui me quedo
TTITLE5=Doncella encantada
TTITLE6=Pimiento
TTITLE7=Homenaje a Victor Jara
TTITLE8=Inga
TTITLE9=Canción del árbol del olvido
TTITLE10=La pala
TTITLE11=Lamento borincano
TTITLE12=Ventolera
TTITLE13=El tinku
TTITLE14=Angelita Huenumán
TTITLE15=Corrido de Pancho Villa
TTITLE16=Caminando caminando
TTITLE17=¿Quien mató a Carmencita?
TTITLE18=Canto libre
EXTD=
EXTT0=
EXTT1=
EXTT2=
EXTT3=
EXTT4=
EXTT5=
EXTT6=
EXTT7=
EXTT8=
EXTT9=
EXTT10=
EXTT11=
EXTT12=
EXTT13=
EXTT14=
EXTT15=
EXTT16=
EXTT17=
EXTT18=
PLAYORDER=
